<svg xmlns="http://www.w3.org/2000/svg" xmlns:xlink="http://www.w3.org/1999/xlink" width="500" height="500" viewBox="0 0 500 500"><defs><style>.cls-1{isolation:isolate;}.cls-2{fill:url(#linear-gradient);}.cls-3{opacity:0.05;mix-blend-mode:multiply;}.cls-4,.cls-6,.cls-8{fill:none;}.cls-4{stroke:#000;}.cls-4,.cls-6{stroke-width:4.56px;}.cls-5{fill:url(#radial-gradient);}.cls-6{stroke:#fff;}.cls-7{fill:#fff;}.cls-8{opacity:0.15;}</style><linearGradient id="linear-gradient" x1="-148.3263" y1="250" x2="648.3263" y2="250" gradientUnits="userSpaceOnUse"><stop offset="0" stop-color="#3566e3"/><stop offset="0.21" stop-color="#3b63e3"/><stop offset="0.48" stop-color="#4d59e3"/><stop offset="0.81" stop-color="#6949e4"/><stop offset="1" stop-color="#7e3ee4"/></linearGradient><radialGradient id="radial-gradient" cx="250" cy="250" r="248.7607" gradientTransform="translate(-5.2482 5.3607) rotate(-1.2158)" gradientUnits="userSpaceOnUse"><stop offset="0.1706" stop-color="#5166e3"/><stop offset="0.6114" stop-color="#3b63e3" stop-opacity="0"/></radialGradient></defs><title>VOL-governance</title><g class="cls-1"><g id="Layer_1" data-name="Layer 1"><circle class="cls-2" cx="250" cy="250" r="398.3263"/><g class="cls-3"><line class="cls-4" x1="-122.175" y1="248.7618" x2="622.175" y2="248.7618"/><line class="cls-4" x1="250" y1="-123.4132" x2="250" y2="620.9368"/><line class="cls-4" x1="-13.1675" y1="-14.4057" x2="513.1675" y2="511.9293"/><line class="cls-4" x1="513.1675" y1="-14.4057" x2="-13.1675" y2="511.9293"/><line class="cls-4" x1="109.0509" y1="592.5708" x2="393.9013" y2="-95.119"/><line class="cls-4" x1="-92.3687" y1="106.3007" x2="595.321" y2="391.1511"/><line class="cls-4" x1="-92.3687" y1="391.1511" x2="595.321" y2="106.3007"/><line class="cls-4" x1="109.0509" y1="-95.119" x2="393.9013" y2="592.5708"/></g><g class="cls-3"><line class="cls-4" x1="-99.5977" y1="318.3064" x2="599.1864" y2="179.3096"/><line class="cls-4" x1="180.296" y1="-100.5841" x2="319.2928" y2="598.2"/><line class="cls-4" x1="-46.4059" y1="50.8933" x2="545.9946" y2="446.7226"/><line class="cls-4" x1="447.7091" y1="-47.3923" x2="51.8797" y2="545.0082"/><line class="cls-4" x1="181.675" y1="597.8906" x2="320.6718" y2="-100.8935"/><line class="cls-4" x1="-98.2186" y1="179.0002" x2="600.5655" y2="317.997"/><line class="cls-4" x1="-45.0268" y1="446.4133" x2="547.3737" y2="50.5839"/><line class="cls-4" x1="53.2587" y1="-47.7017" x2="449.0881" y2="544.6989"/></g><circle class="cls-5" cx="250" cy="250" r="248.7607"/><path id="Rectangle" class="cls-6" d="M151.0637,225.9723l75.6057-75.3753a33.9655,33.9655,0,0,1,47.961,0l75.6057,75.3751a33.9655,33.9655,0,0,1,.0733,48.0344l-.0733.0733L274.63,349.4551a33.9654,33.9654,0,0,1-47.961,0L151.0637,274.08a33.9653,33.9653,0,0,1-.0733-48.0343Z"/><path id="Shape" class="cls-7" d="M233.2964,248.7618h-38.613l34.3832-34.0457,19.2351,19.1749Zm17.7754,21.5009-17.1786-17.0615H195.3516l55.72,55.3467,55.72-55.34H268.2505Zm56.83-21.5009L242.7031,184.008l-19.2676,19.1362L269.36,248.7618Z"/><path class="cls-7" d="M32.74,293.5739l1.1807,6.334-3.9433.7344-3.24-17.3877,3.9434-.7353,1.18,6.3349,17.7607-3.31.8794,4.72Z"/><path class="cls-7" d="M26.1934,279.5349l-.4161-4.7822,8.8106-.7666-.834-9.5967-8.8105.7656-.4156-4.7822,21.9947-1.9121.4155,4.7832-9.22.8007.8344,9.5977,9.2193-.8018.416,4.7832Z"/><path class="cls-7" d="M24.3887,255.3718l.248-15.3164,4.0108.0644-.17,10.5166,5.1162.083.1255-7.7373,3.8525.0625-.1255,7.7373,5.0845.0821.17-10.5156,4.0107.0644-.248,15.3164Z"/><path class="cls-7" d="M25.79,224.6052l2.1587-15.166,4.0025.57-1.4824,10.4121,5.0971.7256,1.09-7.6611,3.6586.5214-1.0908,7.6612,9.1,1.2949-.6767,4.7529Z"/><path class="cls-7" d="M48.5562,208.3288a9.4079,9.4079,0,0,1-7.2242.7959l-12.8056-3.08,1.1225-4.6669,12.8672,3.0947a4.8216,4.8216,0,0,0,3.8721-.4336,5.0516,5.0516,0,0,0,2.0781-3.2363,4.9474,4.9474,0,0,0-.39-3.78,4.856,4.856,0,0,0-3.2559-2.1309l-12.8667-3.0957,1.1226-4.667,12.8056,3.08a9.48,9.48,0,0,1,6.08,3.9629q1.9036,2.96.773,7.6582T48.5562,208.3288Z"/><path class="cls-7" d="M40.0493,178.8552l-2.1133,6.0869-3.7895-1.3154,5.8022-16.709,3.7891,1.3164L41.6245,174.32l17.0664,5.9268-1.5747,4.5351Z"/><path class="cls-7" d="M60.4614,169.6921a9.4109,9.4109,0,0,1-7.2412-.6279l-11.9595-5.5176,2.0113-4.3594,12.0166,5.544a4.8169,4.8169,0,0,0,3.8828.33,5.0486,5.0486,0,0,0,2.6684-2.7685,4.949,4.949,0,0,0,.355-3.7842,4.858,4.858,0,0,0-2.7778-2.7256L47.4,150.24l2.0112-4.3594,11.96,5.5166a9.4835,9.4835,0,0,1,5.19,5.0732q1.29,3.2739-.7343,7.6612T60.4614,169.6921Z"/><path class="cls-7" d="M51.7178,141.62l4.8676-8.24a8.4851,8.4851,0,0,1,4.5977-4.0889,6.8951,6.8951,0,0,1,5.7319.9473,7.419,7.419,0,0,1,3.0249,3.1074,6.4907,6.4907,0,0,1,.524,4.0508l9.0981.4951-2.5058,4.2422-8.4209-.4619-1.9117,3.2363,6.4449,3.8067-2.4414,4.1338Zm13.5439-2.124a4.7356,4.7356,0,0,0,.79-2.8906,3.5456,3.5456,0,0,0-4.33-2.5752,4.9414,4.9414,0,0,0-2.1167,2.124l-1.9922,3.3721,5.6567,3.3418Z"/><path class="cls-7" d="M63.0015,123.0554l8.94-12.44,3.2573,2.3418-6.1387,8.54,4.1548,2.9863,4.5161-6.2832,3.129,2.249-4.5162,6.2832,4.1289,2.9678,6.1387-8.54,3.2573,2.3408L80.9282,135.94Z"/><path class="cls-7" d="M100.7178,109.37a10.7929,10.7929,0,0,1-5.8726.1827,12.38,12.38,0,0,1-8.5444-8.4063,10.76,10.76,0,0,1,.0742-5.8857,12.4977,12.4977,0,0,1,3.1841-5.3077,12.3184,12.3184,0,0,1,5.2329-3.248,10.8179,10.8179,0,0,1,5.8618-.1484,12.3741,12.3741,0,0,1,8.5444,8.4052,10.8549,10.8549,0,0,1-.0634,5.8526,12.3127,12.3127,0,0,1-3.1617,5.2851A12.488,12.488,0,0,1,100.7178,109.37Zm3.9092-9.4453a6.4029,6.4029,0,0,0-.0176-3.4951A8.0995,8.0995,0,0,0,99.3066,91.19a6.312,6.312,0,0,0-3.4838.0283,7.5094,7.5094,0,0,0-4.917,4.999,6.4124,6.4124,0,0,0,.0175,3.4951,7.3183,7.3183,0,0,0,2.003,3.2559,7.3925,7.3925,0,0,0,3.3105,1.9717,6.3655,6.3655,0,0,0,3.5064-.0518,7.1433,7.1433,0,0,0,3.0776-1.89A6.9964,6.9964,0,0,0,104.627,99.9245Z"/><path class="cls-7" d="M101.5049,79.1394l11.79-9.78,2.5816,3.1123-8.0952,6.7148,3.2871,3.962,5.9555-4.94,2.3594,2.8448-5.9561,4.94,5.8682,7.0742-3.6948,3.0645Z"/><path class="cls-7" d="M125.3862,60.5105l4.3838-2.6377L143.06,68.197l-2.87-16.5938,4.3574-2.6211,3.8315,23.46-4.0322,2.4268Z"/><path class="cls-7" d="M160.2368,64.8308a10.7888,10.7888,0,0,1-5.5586-1.9033,12.3754,12.3754,0,0,1-5.0263-10.8809,10.7611,10.7611,0,0,1,2.1479-5.48,12.4956,12.4956,0,0,1,4.853-3.8418,12.3092,12.3092,0,0,1,6.043-1.1914,10.8276,10.8276,0,0,1,5.5361,1.9307,12.3783,12.3783,0,0,1,5.0264,10.8818,10.8413,10.8413,0,0,1-2.126,5.4522,12.302,12.302,0,0,1-4.8242,3.8291A12.49,12.49,0,0,1,160.2368,64.8308Zm6.9927-7.4571a6.4091,6.4091,0,0,0,1.2178-3.2763,8.1038,8.1038,0,0,0-3.1114-6.7735,6.3,6.3,0,0,0-3.27-1.2031,7.0537,7.0537,0,0,0-3.5322.6748,7.1305,7.1305,0,0,0-2.833,2.2656,6.41,6.41,0,0,0-1.2178,3.2754,8.0389,8.0389,0,0,0,3.126,6.7676,6.3742,6.3742,0,0,0,3.2983,1.19,7.1411,7.1411,0,0,0,3.5469-.6817A6.9912,6.9912,0,0,0,167.23,57.3737Z"/><path class="cls-7" d="M171.647,36.8366l4.54-1.5615,5.877,17.084,9.5571-3.2881,1.3047,3.793-14.0967,4.85Z"/><path class="cls-7" d="M196.7764,29.0652l4.5771-1.0948,13.708,19.42L210.3,48.53l-2.96-4.2285-8.5087,2.0361-.7256,5.11-4.792,1.1464Zm8.4453,11.8134-4.9961-7.4424-1.086,8.8985Z"/><path class="cls-7" d="M215.8877,29.2126l-6.37.9707-.6045-3.9648,17.4853-2.6651.6045,3.9659-6.37.9707,2.7217,17.8593-4.7461.7237Z"/><path class="cls-7" d="M229.5674,23.3767l4.7822-.4219,1.94,21.9922-4.7823.4219Z"/><path class="cls-7" d="M238.65,22.572l4.7988-.14.5254,18.0586,10.1035-.2939.1153,4.01-14.9009.4335Z"/><path class="cls-7" d="M256.5635,22.3044l4.7988.1406-.6445,22.0684-4.7989-.1406Z"/><path class="cls-7" d="M270.6094,27.02l-6.416-.5918.3681-3.9941,17.6123,1.624-.3681,3.9942-6.4161-.5918-1.6591,17.99-4.78-.4414Z"/><path class="cls-7" d="M290.3516,39.3249,284.9873,24.37l5.0254.9639,3.5107,10.0322,7.1592-7.9853,4.9942.958L294.9736,40.2107l-1.582,8.2509-4.6221-.8857Z"/><path class="cls-7" d="M321.3828,32.8171l8.74,3.1357a8.7647,8.7647,0,0,1,4.9825,3.8848,6.9222,6.9222,0,0,1,.26,5.9151,6.9122,6.9122,0,0,1-3.9619,4.4511,8.88,8.88,0,0,1-6.3144-.2187L320.8672,48.47l-2.4209,6.749-4.5186-1.621ZM325.79,45.9753q3.835,1.3755,4.9971-1.8652a3.0417,3.0417,0,0,0-.1191-2.8946,5.1542,5.1542,0,0,0-2.5537-1.7216l-3.5674-1.2793-2.3252,6.48Z"/><path class="cls-7" d="M341.39,40.2312l8.6592,4.0732a8.4829,8.4829,0,0,1,4.502,4.1943,6.8921,6.8921,0,0,1-.4053,5.7959,7.4192,7.4192,0,0,1-2.81,3.3028,6.4953,6.4953,0,0,1-3.9843.9013l.3593,9.1045-4.458-2.0976-.3291-8.4268-3.4013-1.6006-3.1866,6.7735-4.3437-2.043Zm3.3838,13.2851a4.7366,4.7366,0,0,0,2.9512.5156,3.5466,3.5466,0,0,0,2.1592-4.5517A4.9485,4.9485,0,0,0,347.57,47.571l-3.5439-1.667L341.23,51.8493Z"/><path class="cls-7" d="M354.2842,70.2009a10.7884,10.7884,0,0,1-1.5225-5.6748,12.3756,12.3756,0,0,1,6.2266-10.2432,10.7608,10.7608,0,0,1,5.7461-1.2744,12.4982,12.4982,0,0,1,5.8965,1.8838,12.3165,12.3165,0,0,1,4.3593,4.3506,10.8217,10.8217,0,0,1,1.4864,5.6719,12.3746,12.3746,0,0,1-6.2256,10.2421,10.8433,10.8433,0,0,1-5.711,1.2774,12.2975,12.2975,0,0,1-5.8691-1.8672A12.4886,12.4886,0,0,1,354.2842,70.2009Zm10.09,1.6426a6.4231,6.4231,0,0,0,3.3985-.8174,8.1029,8.1029,0,0,0,3.8847-6.3613,6.2922,6.2922,0,0,0-.8252-3.3848,7.064,7.064,0,0,0-2.5312-2.5557,7.1383,7.1383,0,0,0-3.46-1.0869,6.4161,6.4161,0,0,0-3.3984.8174,8.037,8.037,0,0,0-3.8721,6.3691,6.3608,6.3608,0,0,0,.8526,3.4014,7.1471,7.1471,0,0,0,2.5449,2.5635A7.0023,7.0023,0,0,0,364.374,71.8435Z"/><path class="cls-7" d="M384.2275,69.3523l-5.1591-3.86,2.4043-3.2119,14.16,10.5986L393.23,76.09l-5.1582-3.86L377.2451,86.6931l-3.8428-2.877Z"/><path class="cls-7" d="M386.8691,93.153a10.7881,10.7881,0,0,1-.4082-5.86,12.3805,12.3805,0,0,1,8.07-8.8633,10.764,10.764,0,0,1,5.8837-.1523,12.4921,12.4921,0,0,1,5.4278,2.9775,12.3147,12.3147,0,0,1,3.4472,5.1035,10.8181,10.8181,0,0,1,.3741,5.8516,12.3771,12.3771,0,0,1-8.07,8.8623,10.852,10.852,0,0,1-5.85.1621A12.3069,12.3069,0,0,1,390.34,98.279,12.5045,12.5045,0,0,1,386.8691,93.153Zm9.59,3.542a6.402,6.402,0,0,0,3.4922-.1513,8.1057,8.1057,0,0,0,5.03-5.501,6.3063,6.3063,0,0,0-.163-3.48,7.5049,7.5049,0,0,0-5.1846-4.7207,6.4078,6.4078,0,0,0-3.4912.1524,8.0338,8.0338,0,0,0-5.0186,5.5107,6.3754,6.3754,0,0,0,.1856,3.502,7.1544,7.1544,0,0,0,2.0078,3.0029A6.985,6.985,0,0,0,396.459,96.695Z"/><path class="cls-7" d="M404.417,110.2517a10.0531,10.0531,0,0,1,.2187-5.793,13.2873,13.2873,0,0,1,9.1573-8.0732,10.0152,10.0152,0,0,1,5.7861.498,14.8532,14.8532,0,0,1,8.6816,10.8731l-3.4111,3.0078a8.6437,8.6437,0,0,0-.832-3.4981,14.5087,14.5087,0,0,0-2.293-3.39,7.5725,7.5725,0,0,0-5.0371-2.8223,7.751,7.751,0,0,0-7.8076,6.9043,7.5857,7.5857,0,0,0,2.16,5.3389,14.1193,14.1193,0,0,0,3.15,2.7383,10.133,10.133,0,0,0,3.5528,1.331l-3.4112,3.0078a13.0138,13.0138,0,0,1-6.833-4.5029A13.4228,13.4228,0,0,1,404.417,110.2517Z"/><path class="cls-7" d="M417.7227,126.13a10.7973,10.7973,0,0,1,.8671-5.81,12.3819,12.3819,0,0,1,9.795-6.91,10.765,10.765,0,0,1,5.7773,1.1221,12.5,12.5,0,0,1,4.6563,4.0791,12.3132,12.3132,0,0,1,2.2627,5.7285,10.8185,10.8185,0,0,1-.8985,5.7939,12.3738,12.3738,0,0,1-9.7939,6.91,10.8513,10.8513,0,0,1-5.7471-1.1055,12.3186,12.3186,0,0,1-4.6377-4.0537A12.4925,12.4925,0,0,1,417.7227,126.13Zm8.5986,5.53a6.4028,6.4028,0,0,0,3.4414.6054,8.1024,8.1024,0,0,0,6.1006-4.2841,6.3076,6.3076,0,0,0,.5928-3.4326,7.5134,7.5134,0,0,0-4.042-5.7295,6.41,6.41,0,0,0-3.4424-.6055,8.038,8.038,0,0,0-6.0908,4.2969,6.3684,6.3684,0,0,0-.5752,3.4589,7.1554,7.1554,0,0,0,1.3115,3.3653A6.9939,6.9939,0,0,0,426.3213,131.66Z"/><path class="cls-7" d="M447.3145,132.2849l2.3593,4.1806L433.94,145.3444l4.9668,8.8018-3.4942,1.9717-7.3262-12.9834Z"/><path class="cls-7" d="M460.9775,158.8474l1.876,4.4189-20.3222,8.628-1.876-4.419Z"/><path class="cls-7" d="M444.5439,177.1423a12.6461,12.6461,0,0,1-.1289-3.4043l3.9913-1.4082a15.82,15.82,0,0,0-.0059,3.6855,15.5131,15.5131,0,0,0,.7588,3.3838,5.0219,5.0219,0,0,0,1.5205,2.41,2.0091,2.0091,0,0,0,1.9834.3057,2.1011,2.1011,0,0,0,1.1523-.9092,4.2811,4.2811,0,0,0,.5108-1.6377q.1319-1,.2275-3.0108a12.0469,12.0469,0,0,1,1.1729-5.17,5.9967,5.9967,0,0,1,6.6347-2.7431,6.5293,6.5293,0,0,1,3.0459,1.9394,10.6253,10.6253,0,0,1,2.1533,3.7285,17.1912,17.1912,0,0,1,.8584,3.3809,14.0215,14.0215,0,0,1,.0645,3.126l-3.8721,1.3662a12.34,12.34,0,0,0-.539-5.7041,5.3291,5.3291,0,0,0-1.5059-2.416,1.9439,1.9439,0,0,0-1.9893-.37,1.9774,1.9774,0,0,0-1.123.8985,4.1056,4.1056,0,0,0-.4521,1.5664q-.1041.94-.2071,3.02a20.3113,20.3113,0,0,1-.5459,3.91,5.5417,5.5417,0,0,1-1.3164,2.4405,6.4156,6.4156,0,0,1-2.5547,1.5381,5.5738,5.5738,0,0,1-5.1279-.4844q-2.3-1.4839-3.7285-5.5342A21.3946,21.3946,0,0,1,444.5439,177.1423Z"/><path class="cls-7" d="M454.3154,206.3484a10.7855,10.7855,0,0,1,3.22-4.9151,12.3793,12.3793,0,0,1,11.7861-2.1767,10.7552,10.7552,0,0,1,4.7783,3.4375,12.4947,12.4947,0,0,1,2.5215,5.6523,12.3118,12.3118,0,0,1-.3408,6.15,10.8241,10.8241,0,0,1-3.2412,4.8857A12.378,12.378,0,0,1,461.252,221.56a10.8563,10.8563,0,0,1-4.7569-3.41,12.3086,12.3086,0,0,1-2.5156-5.6211A12.4905,12.4905,0,0,1,454.3154,206.3484Zm5.4942,8.62a6.4168,6.4168,0,0,0,2.873,1.9912,8.103,8.103,0,0,0,7.333-1.3389,6.302,6.302,0,0,0,1.9756-2.87,7.0614,7.0614,0,0,0,.22-3.5889,7.1379,7.1379,0,0,0-1.4931-3.3056,6.4134,6.4134,0,0,0-2.8731-1.9912,8.0384,8.0384,0,0,0-7.33,1.3544,6.3642,6.3642,0,0,0-1.97,2.9,7.145,7.145,0,0,0-.2168,3.6055A6.9916,6.9916,0,0,0,459.81,214.9685Z"/><path class="cls-7" d="M478.7217,224.487l.3271,4.6621-13.5937,10.2022,14.2412-1.002.3369,4.7891L458.01,244.6872l-.3252-4.6308,13.5918-10.2334-14.2412,1.0019-.337-4.789Z"/><path class="cls-7" d="M459.792,260.7009a9.4067,9.4067,0,0,1,7.0234-1.8711l13.1221,1.123-.4092,4.7842-13.1855-1.13a4.82,4.82,0,0,0-3.7637,1.01,5.05,5.05,0,0,0-1.5693,3.5108,4.95,4.95,0,0,0,.9531,3.68,4.8532,4.8532,0,0,0,3.5391,1.6182l13.1855,1.13-.41,4.7832-13.122-1.124a9.4788,9.4788,0,0,1-6.6055-3.0069q-2.3262-2.64-1.9141-7.4541T459.792,260.7009Z"/><path class="cls-7" d="M455.252,282.6257a12.6273,12.6273,0,0,1,1.58-3.0176l4.1631.7617a15.8839,15.8839,0,0,0-1.8369,3.1963,15.4928,15.4928,0,0,0-1.0244,3.3125,5.0261,5.0261,0,0,0,.1211,2.8477,2.0066,2.0066,0,0,0,1.5693,1.25,2.1,2.1,0,0,0,1.4522-.2149,4.3035,4.3035,0,0,0,1.2568-1.167q.6123-.8027,1.6943-2.5a12.0523,12.0523,0,0,1,3.5879-3.9023,5.9955,5.9955,0,0,1,7.1211.919,6.5458,6.5458,0,0,1,1.6787,3.1962,10.6337,10.6337,0,0,1,.0137,4.3057,17.1309,17.1309,0,0,1-.9355,3.36,14.024,14.024,0,0,1-1.4981,2.7441l-4.039-.7393a12.3418,12.3418,0,0,0,2.3681-5.2177,5.3385,5.3385,0,0,0-.1055-2.8448,1.941,1.941,0,0,0-1.5419-1.31,1.9751,1.9751,0,0,0-1.4209.2207,4.1407,4.1407,0,0,0-1.1719,1.1347q-.5567.7647-1.6807,2.5176a20.2941,20.2941,0,0,1-2.418,3.1221,5.5571,5.5571,0,0,1-2.3544,1.4629,6.4339,6.4339,0,0,1-2.9825.0644,5.5733,5.5733,0,0,1-4.208-2.9707q-1.2582-2.4287-.4834-6.6543A21.3565,21.3565,0,0,1,455.252,282.6257Z"/><circle class="cls-8" cx="251.0718" cy="248.7618" r="213.775"/><path class="cls-7" d="M162.0215,402.8034l9.1,4.9317-16.6563,30.7275-9.0986-4.9326Z"/><path class="cls-7" d="M185.4492,415.1716l10.6553,2.9248,2.0488,22.39L211.3906,422.29l10.6074,2.9111-22.7011,30.0127-9.5948-2.6318Z"/><path class="cls-7" d="M225.1533,458.59a17.1733,17.1733,0,0,1-6.2969-6.917,19.4258,19.4258,0,0,1,1.4268-18.9209,17.12,17.12,0,0,1,7.2656-5.9219,20.17,20.17,0,0,1,9.77-1.5684,19.8818,19.8818,0,0,1,9.375,3.0118,17.199,17.199,0,0,1,6.2461,6.94,19.4218,19.4218,0,0,1-1.4267,18.9219,17.2636,17.2636,0,0,1-7.2139,5.8984,19.8992,19.8992,0,0,1-9.7207,1.5742A20.1725,20.1725,0,0,1,225.1533,458.59Zm14.3955-7.3633a7.555,7.555,0,0,0,3.1875-2.7168,8.9738,8.9738,0,0,0,1.4375-4.4307,8.2145,8.2145,0,0,0-1.8808-6.3086,8.0958,8.0958,0,0,0-5.711-2.7373,8.0153,8.0153,0,0,0-8.9609,7.7979,8.9776,8.9776,0,0,0,.7559,4.5947,7.5071,7.5071,0,0,0,2.77,3.167,8.8082,8.8082,0,0,0,4.16,1.3428A8.5582,8.5582,0,0,0,239.5488,451.2263Z"/><path class="cls-7" d="M263.5273,434.7927l-9.3525.9443-.874-8.6552,29.0029-2.9288.8731,8.6553-9.3516.9453,2.6367,26.1162-10.2978,1.04Z"/><path class="cls-7" d="M282.5791,423.8923l24.542-6.3486,2.18,8.4228-14.5225,3.7559,1.2012,4.6484,10.456-2.7051,1.9913,7.6973-10.4561,2.7041,1.2031,4.6465,14.5215-3.7559,2.1787,8.4229-24.5429,6.3476Z"/><path class="cls-7" d="M307.5771,417.5652l11.837-5.253a22.9446,22.9446,0,0,1,10.1074-2.1865,15.5927,15.5927,0,0,1,8.5674,2.79,17.3729,17.3729,0,0,1,5.8916,7.4239q3.5288,7.9525.6357,14.1308-2.8915,6.18-11.1191,9.8291l-11.7461,5.2119Zm23.0772,18.4785a7.41,7.41,0,0,0,4.4424-4.5977,9.6754,9.6754,0,0,0-.76-6.8281,9.1124,9.1124,0,0,0-4.414-4.7695,7.1771,7.1771,0,0,0-6.2491.0927l-3.1084,1.378,7.1182,16.042Z"/><path class="cls-7" d="M337.2324,403.5847l8.5762-5.1436,11.7764,19.64-8.5772,5.1426Zm18.6719,28.709a5.2524,5.2524,0,0,1-3.78-6.3037,5.4119,5.4119,0,0,1,6.3682-3.8194,5.1638,5.1638,0,0,1,3.7666,6.2842,5.05,5.05,0,0,1-2.38,3.1758A5.1364,5.1364,0,0,1,355.9043,432.2937Z"/><path class="cls-7" d="M213.8457,473.9148l2.1953.3505,2.4717,10.9581-2.2852-.3643-.5273-2.3818-4.083-.65-1.2407,2.1-2.3008-.3672Zm1.55,6.6855-.835-4.1543-2.0844,3.6895Z"/><path class="cls-7" d="M220.2412,484.8347a3.0187,3.0187,0,0,1-.4809-2.1953l.5126-4.4346,2.2383.26-.4848,4.1963q-.1626,1.393,1.1289,1.5419a2.163,2.163,0,0,0,1.0825-.1435,2.1883,2.1883,0,0,0,.9087-.707l.5234-4.5215,2.2383.26-.8232,7.1153-2.1651-.249.1-.8614a2.9245,2.9245,0,0,1-1.2431.6826,3.8706,3.8706,0,0,1-1.4468.1036A2.8316,2.8316,0,0,1,220.2412,484.8347Z"/><path class="cls-7" d="M231.0811,489.8542a5.2711,5.2711,0,0,1-1.1875-.4463l.123-1.6513a6.534,6.534,0,0,0,2.6123.7011,2.4746,2.4746,0,0,0,1.7622-.3652,1.9375,1.9375,0,0,0,.63-1.4356l.0327-.4453a3.0521,3.0521,0,0,1-1.1777.5489,4.6083,4.6083,0,0,1-1.4444.11,3.9813,3.9813,0,0,1-1.9365-.6289,3.4794,3.4794,0,0,1-1.2637-1.4473,3.9084,3.9084,0,0,1-.3457-2.0009,4.0061,4.0061,0,0,1,.6309-1.959,3.37,3.37,0,0,1,1.4365-1.2344,4.0141,4.0141,0,0,1,1.9922-.3242,4.2238,4.2238,0,0,1,1.4566.3467,3.6788,3.6788,0,0,1,1.1489.8486l.0576-.7744,2.1738.16-.4922,6.6836a3.7223,3.7223,0,0,1-1.3139,2.792,4.8972,4.8972,0,0,1-3.4683.7617A7.8719,7.8719,0,0,1,231.0811,489.8542Zm3.3-4.9717a1.93,1.93,0,0,0,.8408-.9492l.0986-1.3389a2.0809,2.0809,0,0,0-.708-1.0546,2.1493,2.1493,0,0,0-1.2163-.4639,2.0469,2.0469,0,0,0-1.521.4414,1.95,1.95,0,0,0-.6807,1.4316,1.9581,1.9581,0,0,0,1.9014,2.22A2.1838,2.1838,0,0,0,234.3809,484.8825Z"/><path class="cls-7" d="M239.7568,486.5368a3.0233,3.0233,0,0,1-.664-2.1494l.1416-4.4609,2.2529.0722-.1338,4.2217q-.0454,1.4019,1.2529,1.4434a2.1754,2.1754,0,0,0,1.0679-.2344,2.1991,2.1991,0,0,0,.8457-.7793l.145-4.5517,2.252.0722-.2266,7.1621-2.1777-.07.0264-.8652a2.9361,2.9361,0,0,1-1.1817.7842,3.8536,3.8536,0,0,1-1.4326.2236A2.8329,2.8329,0,0,1,239.7568,486.5368Z"/><path class="cls-7" d="M249.7427,487.3874a4.4324,4.4324,0,0,1-1.4419-.4765l-.01-1.7618a5.5733,5.5733,0,0,0,1.4356.5743,6.0575,6.0575,0,0,0,1.5537.2168,2.797,2.797,0,0,0,.8945-.1094.3891.3891,0,0,0,.2822-.39.4623.4623,0,0,0-.167-.3652,1.5152,1.5152,0,0,0-.5-.251q-.3369-.11-1.1142-.33a7.7417,7.7417,0,0,1-1.4278-.538,1.81,1.81,0,0,1-1.0468-1.7618,1.8557,1.8557,0,0,1,.88-1.6845,4.4817,4.4817,0,0,1,2.4082-.5723,8.0027,8.0027,0,0,1,1.5449.1494,3.9741,3.9741,0,0,1,1.2334.4053l.0088,1.7158a3.7423,3.7423,0,0,0-1.128-.457,5.4309,5.4309,0,0,0-1.3525-.1739,2.96,2.96,0,0,0-.9473.126.445.445,0,0,0-.334.4492.4676.4676,0,0,0,.3243.43,7.7847,7.7847,0,0,0,1.2021.3672l.2988.0742a6.1268,6.1268,0,0,1,1.4659.5528,1.8214,1.8214,0,0,1,.7412.7275,2.3267,2.3267,0,0,1,.2226,1.0654,1.8228,1.8228,0,0,1-.8427,1.5782,4.2879,4.2879,0,0,1-2.46.6015A9.2117,9.2117,0,0,1,249.7427,487.3874Z"/><path class="cls-7" d="M257.07,486.7644a2.7171,2.7171,0,0,1-.7129-1.91l-.1045-3.1328-1.0439.0352-.0537-1.627,1.0439-.0342-.0713-2.1484,2.253-.0742.0712,2.1484,1.6856-.0566.0547,1.6259-1.6865.0567.0937,2.834a1.3716,1.3716,0,0,0,.2686.8945,1.0834,1.0834,0,0,0,.8593.248,1.979,1.979,0,0,0,.9317-.2695l.0566,1.6856a4.3762,4.3762,0,0,1-1.7207.3554A2.48,2.48,0,0,1,257.07,486.7644Z"/><path class="cls-7" d="M266.9375,485.4128l1.709-1.8594c.3476-.3691.6074-.6425.7822-.8173q.7823-.8189,1.1885-1.3106a4.7422,4.7422,0,0,0,.6455-1.0088,1.9958,1.9958,0,0,0,.1924-1.0361,1.528,1.528,0,0,0-.5235-1.1065,1.82,1.82,0,0,0-1.3535-.3017,4.507,4.507,0,0,0-1.4629.3916,4.9615,4.9615,0,0,0-1.3037.8574l-.19-2.1572a5.0232,5.0232,0,0,1,1.4336-.8379,6.5108,6.5108,0,0,1,1.7988-.4053,4.2706,4.2706,0,0,1,1.9844.2442A2.9236,2.9236,0,0,1,273.19,477.13a3.7254,3.7254,0,0,1,.1983,3.707,11.68,11.68,0,0,1-1.628,2.1729l-1.4628,1.5976,4.3115-.38.164,1.8574-7.7168.68Z"/><path class="cls-7" d="M278.1025,485.2653a4.21,4.21,0,0,1-1.8486-1.6552,7.7827,7.7827,0,0,1-.7568-5.7647,4.215,4.215,0,0,1,1.3554-2.0722,4.5917,4.5917,0,0,1,2.38-.9717,4.5448,4.5448,0,0,1,2.541.332,4.2351,4.2351,0,0,1,1.835,1.6563,6.9827,6.9827,0,0,1,.9307,2.8154,6.8924,6.8924,0,0,1-.19,2.9512,4.2288,4.2288,0,0,1-1.3564,2.0732,5.0033,5.0033,0,0,1-4.8907.6357Zm3.8672-2.8427a4.2107,4.2107,0,0,0,.294-2.49,4.3678,4.3678,0,0,0-.918-2.3652,2.1348,2.1348,0,0,0-3.4473.4473,4.35,4.35,0,0,0-.2841,2.52,4.2111,4.2111,0,0,0,.9209,2.333,2.14,2.14,0,0,0,3.4345-.4453Z"/><path class="cls-7" d="M286.2109,483.2292l1.55-1.9931q.4717-.5963.712-.88.7119-.879,1.0742-1.4053a4.6387,4.6387,0,0,0,.56-1.0576,2.0036,2.0036,0,0,0,.1065-1.0489,1.5332,1.5332,0,0,0-.6143-1.06,1.8176,1.8176,0,0,0-1.3721-.1865,4.4825,4.4825,0,0,0-1.4267.5107,4.9488,4.9488,0,0,0-1.2266.961l-.3691-2.1329a5.0726,5.0726,0,0,1,1.3574-.9531,6.5441,6.5441,0,0,1,1.7607-.5537,4.2734,4.2734,0,0,1,1.9991.0811,2.92,2.92,0,0,1,1.4336.9472,3.7277,3.7277,0,0,1,.5068,3.6768,11.6811,11.6811,0,0,1-1.4434,2.3017l-1.3261,1.7129,4.2656-.7343.3174,1.8379-7.6338,1.3154Z"/><path class="cls-7" d="M295.7441,474.7839l-1.8066,1.9707-.4355-2.1357,2.1093-2.337,1.8575-.38,2.0937,10.2207-2.2227.456Z"/></g></g></svg>