<svg id="Layer_1" data-name="Layer 1" xmlns="http://www.w3.org/2000/svg" width="500" height="500" viewBox="0 0 500 500"><defs><style>.cls-1{fill:#010d85;}.cls-2,.cls-4{fill:#fff;}.cls-2{opacity:0.17;}.cls-3{fill:none;stroke:#fff;stroke-miterlimit:10;stroke-width:12px;}.cls-5{fill:#000d85;}.cls-6{fill:#ffdd50;}.cls-7{fill:#95e8da;}.cls-8{fill:#59c785;}</style></defs><title>eco-explorer-01B</title><rect class="cls-1" x="-5.8421" width="510.7053" height="499.9348"/><circle class="cls-2" cx="250.8345" cy="248.0198" r="167.0592"/><rect class="cls-2" x="256.2501" width="248.6131" height="499.8695"/><rect class="cls-2" x="-5.8421" y="366.5245" width="510.7053" height="133.4755"/><circle class="cls-2" cx="167.5833" cy="-15.1993" r="167.0592"/><path class="cls-3" d="M167.5833,152.7672a166.28,166.28,0,0,0,86.4955-24.1064v237.102"/><line class="cls-3" x1="130.1235" y1="365.7628" x2="369.876" y2="365.7628"/><rect class="cls-4" x="376.7882" y="221.7004" width="142.1909" height="56.1902"/><circle class="cls-4" cx="376.7882" cy="249.7955" r="28.0951"/><path class="cls-5" d="M411.7367,260.7524c-1.8939-2.8864-2.5418-5.6732-2.5418-10.9318,0-4.7775.7144-7.5644,2.7246-10.683,1.9437-3.0191,5.2663-4.6614,9.4028-4.6614,7.3929,0,11.945,4.96,11.945,12.939v2.6542a1.1836,1.1836,0,0,1-1.18,1.1778h-18.573a.5663.5663,0,0,0-.598.5327.5552.5552,0,0,0,0,.0645c0,6.32,3.0734,9.87,8.5225,9.87,3.7879,0,6.7948-1.4763,7.9244-5.5571a1.3538,1.3538,0,0,1,1.3625-1.0119h1.1792a.94.94,0,0,1,1.0131,1.1778c-.714,5.2585-5.3825,8.8582-11.4792,8.8582C417.003,265.1815,413.6306,263.6388,411.7367,260.7524ZM428.9475,247.93a.5662.5662,0,0,0,.5982-.5321.5891.5891,0,0,0,0-.0651c0-6.0216-2.9573-9.3891-8.1569-9.3891-5.15,0-8.4061,3.6-8.4061,9.3891a.5662.5662,0,0,0,.5336.5972.5765.5765,0,0,0,.0644,0Z"/><path class="cls-5" d="M439.3644,259.8563c-1.8938-2.8864-2.0765-5.7894-2.0765-10.036s.1827-7.15,2.0765-10.0361a11.5405,11.5405,0,0,1,10.0014-5.3083,11.7519,11.7519,0,0,1,8.0406,2.6542,10.21,10.21,0,0,1,3.0731,7.3818,1.0425,1.0425,0,0,1-1.0131,1.1778h-1.479a1.021,1.021,0,0,1-1.1263-.9035l-.0037-.042a6.9388,6.9388,0,0,0-2.193-5.1922,8.2823,8.2823,0,0,0-5.3157-1.5925,7.6532,7.6532,0,0,0-7.277,4.5453c-.88,1.891-1.0627,3.8983-1.0627,7.3155s.1826,5.441,1.0627,7.3155a7.6532,7.6532,0,0,0,7.277,4.5452,7.3917,7.3917,0,0,0,5.7974-2.19,7.1479,7.1479,0,0,0,1.6616-4.5453,1.0018,1.0018,0,0,1,1.13-1.0119H459.3a1.183,1.183,0,0,1,1.1792,1.1778,10.1893,10.1893,0,0,1-2.5417,6.6686,12.3094,12.3094,0,0,1-18.5734-1.9243Z"/><path class="cls-5" d="M465.862,259.8563c-1.5451-2.4883-2.0765-4.7277-2.0765-10.036s.4652-7.6142,2.0765-10.0361a11.65,11.65,0,0,1,10.0007-5.3083,11.3627,11.3627,0,0,1,10.0013,5.3083c1.5948,2.4219,2.0765,4.7277,2.0765,10.0361s-.4652,7.6141-2.0765,10.036a12.0752,12.0752,0,0,1-20.002,0Zm17.26-2.7039c.8311-1.7086,1.0634-3.3011,1.0634-7.3156s-.2323-5.6069-1.0634-7.3155a8.0969,8.0969,0,0,0-14.5527,0c-.83,1.7086-1.0634,3.3012-1.0634,7.3155s.2329,5.607,1.0634,7.3156a8.0172,8.0172,0,0,0,7.2763,4.5452,7.9269,7.9269,0,0,0,7.2769-4.5452Z"/><path class="cls-6" d="M358.4917,239.0982a21.0252,21.0252,0,0,0,36.5929.0611,21.1823,21.1823,0,0,0-36.5929-.0611Z"/><path class="cls-7" d="M364.4665,232.56a21.2408,21.2408,0,0,1,0,34.472,21.1792,21.1792,0,0,1,0-34.472Z"/><path class="cls-8" d="M358.4917,239.0982a21.2857,21.2857,0,0,1,5.9748-6.5387,21.1791,21.1791,0,0,1,8.8254,16.9429A21.0924,21.0924,0,0,1,358.4917,239.0982Z"/><path class="cls-5" d="M373.2955,270.6871A21.194,21.194,0,0,0,397.9434,250.1a21.0795,21.0795,0,0,0-24.6479,20.5872Z"/><path class="cls-4" d="M30.3984,240.2471h12.461v2.9067H33.8555v4.97h7.6259V251.03H33.8555v5.7441h9.3008V259.68H30.3984Z"/><path class="cls-4" d="M44.084,252.4c0-4.8779,3.8389-7.6753,8.2949-7.6753a7.6591,7.6591,0,0,1,5.3926,2.0562l-1.6231,2.1533a5.672,5.672,0,0,0-3.6035-1.4053A4.6487,4.6487,0,0,0,47.6035,252.4a4.5853,4.5853,0,0,0,4.8379,4.833,6.7836,6.7836,0,0,0,4.1641-1.6055l1.4384,2.1944a9.104,9.104,0,0,1-5.9,2.2148C47.56,260.0371,44.084,257.24,44.084,252.4Z"/><path class="cls-4" d="M58.0537,252.4a7.3363,7.3363,0,1,1,7.33,7.6367,7.2414,7.2414,0,0,1-7.34-7.1411Q58.04,252.6477,58.0537,252.4Zm11.1416,0c0-2.9365-1.4287-4.8711-3.8115-4.8711s-3.8106,1.9346-3.8106,4.8711c0,2.918,1.4288,4.833,3.8106,4.833S69.1953,255.3184,69.1953,252.4Z"/><path class="cls-4" d="M88.6582,240.2471h12.4609v2.9067H92.1152v4.97h7.626V251.03h-7.626v5.7441h9.3008V259.68H88.6582Z"/><path class="cls-4" d="M106.9443,252.1035l-4.9111-7.0215h3.72l1.8955,2.7578c.4727.8135,1.0674,1.6866,1.6075,2.481h.1191c.458-.7944.9873-1.686,1.4268-2.4995l1.7148-2.7393h3.6084l-4.959,7.3711,5.3213,7.2276H112.749l-2.083-2.8711c-.58-.8135-1.2119-1.7608-1.793-2.5938h-.1191c-.5176.8516-1.0576,1.7129-1.5762,2.6133l-1.9082,2.8516h-3.6084Z"/><path class="cls-4" d="M117.1748,245.082h2.8066l.2627,1.6685h.1a7.22,7.22,0,0,1,4.6884-2.0254c3.7852,0,5.9414,2.916,5.9414,7.437,0,4.9815-3.0908,7.875-6.4814,7.875a6.0311,6.0311,0,0,1-3.9609-1.7305H120.45l.1621,2.5606v4.5908h-3.4375Zm10.28,7.1026c0-2.9082-1.0254-4.6148-3.3858-4.6148a4.8687,4.8687,0,0,0-3.457,1.7471v6.561a4.8991,4.8991,0,0,0,3.169,1.3155c2.0764,0,3.6741-1.7041,3.6741-5.0088Z"/><path class="cls-4" d="M135.9932,254.3672V241.4141h-4.8721v-2.7227h8.31v15.8535a2.3938,2.3938,0,0,0,2.6241,2.6885,6.4272,6.4272,0,0,0,2.498-.5664l.7979,2.541a10.4159,10.4159,0,0,1-4.1368.8291C137.8076,260.0371,135.9932,257.9482,135.9932,254.3672Z"/><path class="cls-4" d="M145.4434,252.4a7.3362,7.3362,0,1,1,7.33,7.6367,7.2414,7.2414,0,0,1-7.34-7.1411Q145.43,252.6477,145.4434,252.4Zm11.1416,0c0-2.9365-1.4287-4.8711-3.8116-4.8711s-3.8105,1.9346-3.8105,4.8711c0,2.918,1.4287,4.833,3.8105,4.833S156.585,255.3184,156.585,252.4Z"/><path class="cls-4" d="M162.2842,245.082h2.8369l.292,3.32h.082a7.2229,7.2229,0,0,1,6.21-3.6768,6.0839,6.0839,0,0,1,2.8428.5947l-.7286,2.9068a7.4434,7.4434,0,0,0-2.6425-.4536c-1.9952,0-3.959,1.0234-5.4541,3.8588v8.0489h-3.4385Z"/><path class="cls-4" d="M174.8115,252.3623a7.3942,7.3942,0,0,1,7.1459-7.6344q.1891-.0063.3785-.0028c4.3575,0,6.7725,2.8906,6.7725,6.93a11.4281,11.4281,0,0,1-.1514,1.7265H177.2646v-2.4262h9.4727l-.6572.76c0-2.8843-1.3565-4.3491-3.6416-4.3491-2.4131,0-4.2735,1.7373-4.2735,4.9956,0,3.3965,2.045,5.0156,5.08,5.0156a7.9488,7.9488,0,0,0,4.0938-1.1933l1.1757,2.1289a10.6121,10.6121,0,0,1-5.72,1.7236C178.3242,260.0371,174.8115,257.2217,174.8115,252.3623Z"/></svg>