<svg xmlns="http://www.w3.org/2000/svg" width="500" height="500" viewBox="0 0 500 500"><defs><style>.cls-1{isolation:isolate;}.cls-2{fill:#ffdd50;}.cls-3{fill:#ff6612;mix-blend-mode:hard-light;}.cls-4{fill:#fff;}.cls-5{fill:#000d85;}.cls-6{fill:#95e8da;}.cls-7{fill:#59c785;}.cls-8{fill:none;stroke:#fff;stroke-miterlimit:10;stroke-width:12px;}</style></defs><title>eco-explorer</title><g class="cls-1"><g id="Layer_1" data-name="Layer 1"><rect class="cls-2" y="0.0234" width="499.9533" height="499.9533"/><rect class="cls-3" y="0.0234" width="249.9766" height="499.9766" transform="translate(249.9766 500.0234) rotate(180)"/><rect class="cls-3" y="366.3431" width="499.9533" height="133.6335"/><circle class="cls-3" cx="249.7478" cy="197.4072" r="84.0949"/><circle class="cls-3" cx="249.7478" cy="29.2174" r="84.0949"/><circle class="cls-3" cx="249.7478" cy="533.7867" r="84.0949"/><circle class="cls-3" cx="249.9572" cy="365.597" r="84.0949"/><circle class="cls-3" cx="249.7478" cy="113.3123" r="84.0949"/><circle class="cls-3" cx="249.7478" cy="-54.8775" r="84.0949"/><circle class="cls-3" cx="249.7478" cy="449.6918" r="84.0949"/><circle class="cls-3" cx="249.9572" cy="281.5021" r="84.0949"/><rect class="cls-4" x="375.8092" y="221.7423" width="142.1909" height="56.1902"/><circle class="cls-4" cx="375.8092" cy="249.8374" r="28.0951"/><path class="cls-5" d="M410.7577,260.7943c-1.8938-2.8864-2.5417-5.6732-2.5417-10.9319,0-4.7774.7143-7.5643,2.7245-10.683,1.9437-3.019,5.2663-4.6613,9.4029-4.6613,7.3929,0,11.9449,4.96,11.9449,12.939v2.6542a1.1835,1.1835,0,0,1-1.18,1.1778H412.5353a.5663.5663,0,0,0-.598.5972c0,6.32,3.0734,9.87,8.5224,9.87,3.788,0,6.7949-1.4763,7.9244-5.5571a1.3539,1.3539,0,0,1,1.3625-1.0119h1.1792a.94.94,0,0,1,1.0131,1.1778c-.714,5.2585-5.3825,8.8582-11.4792,8.8582C416.024,265.2234,412.6516,263.6807,410.7577,260.7943Zm17.2109-12.823a.5661.5661,0,0,0,.5982-.5971c0-6.0217-2.9573-9.3891-8.157-9.3891-5.15,0-8.4061,3.6-8.4061,9.3891a.5663.5663,0,0,0,.5981.5971Z"/><path class="cls-5" d="M438.3855,259.8982c-1.8939-2.8864-2.0765-5.7894-2.0765-10.036s.1826-7.15,2.0765-10.0361a11.5405,11.5405,0,0,1,10.0013-5.3083,11.7527,11.7527,0,0,1,8.0407,2.6541,10.21,10.21,0,0,1,3.0731,7.3819,1.0424,1.0424,0,0,1-1.0132,1.1778h-1.4789a1.021,1.021,0,0,1-1.13-.9455,6.939,6.939,0,0,0-2.1929-5.1922,8.2824,8.2824,0,0,0-5.3157-1.5925,7.6532,7.6532,0,0,0-7.277,4.5452c-.88,1.8911-1.0628,3.8983-1.0628,7.3156s.1827,5.441,1.0628,7.3155a7.6532,7.6532,0,0,0,7.277,4.5452,7.3917,7.3917,0,0,0,5.7974-2.19,7.1483,7.1483,0,0,0,1.6616-4.5453,1.002,1.002,0,0,1,1.13-1.0119h1.3624a1.183,1.183,0,0,1,1.1793,1.1778,10.1892,10.1892,0,0,1-2.5417,6.6685,12.3093,12.3093,0,0,1-18.5734-1.9242Z"/><path class="cls-5" d="M464.883,259.8982c-1.5451-2.4883-2.0765-4.7277-2.0765-10.036s.4652-7.6142,2.0765-10.0361a11.65,11.65,0,0,1,10.0007-5.3083,11.3627,11.3627,0,0,1,10.0014,5.3083c1.5948,2.4219,2.0765,4.7277,2.0765,10.0361s-.4652,7.6141-2.0765,10.036a12.0753,12.0753,0,0,1-20.0021,0Zm17.2606-2.704c.8311-1.7085,1.0634-3.301,1.0634-7.3155s-.2323-5.6069-1.0634-7.3155a8.097,8.097,0,0,0-14.5528,0c-.83,1.7086-1.0634,3.3011-1.0634,7.3155s.233,5.607,1.0634,7.3155a8.0172,8.0172,0,0,0,7.2764,4.5453A7.9269,7.9269,0,0,0,482.1436,257.1942Z"/><path class="cls-2" d="M357.5128,239.14a21.0251,21.0251,0,0,0,36.5928.0611,21.1822,21.1822,0,0,0-36.5928-.0611Z"/><path class="cls-6" d="M363.4876,232.6014a21.241,21.241,0,0,1,0,34.472,21.1791,21.1791,0,0,1,0-34.472Z"/><path class="cls-7" d="M357.5128,239.14a21.2818,21.2818,0,0,1,5.9748-6.5387,21.1791,21.1791,0,0,1,8.8253,16.9429A21.0925,21.0925,0,0,1,357.5128,239.14Z"/><path class="cls-5" d="M372.3166,270.729a21.1947,21.1947,0,0,0,24.6479-20.5873,21.08,21.08,0,0,0-24.6479,20.5873Z"/><path class="cls-4" d="M29.42,240.2891h12.461v2.9067h-9.004v4.97h7.626v2.9068h-7.626v5.7441h9.3008v2.9063H29.42Z"/><path class="cls-4" d="M43.1052,252.4424c0-4.8779,3.8388-7.6753,8.2949-7.6753a7.6594,7.6594,0,0,1,5.3926,2.0561L55.17,248.9766a5.672,5.672,0,0,0-3.6035-1.4053,4.6487,4.6487,0,0,0-4.9414,4.8711,4.5856,4.5856,0,0,0,4.8379,4.833,6.7837,6.7837,0,0,0,4.164-1.6055l1.4385,2.1944a9.105,9.105,0,0,1-5.9,2.2148C46.5807,260.0791,43.1052,257.2822,43.1052,252.4424Z"/><path class="cls-4" d="M57.0749,252.4424a7.3362,7.3362,0,1,1,7.33,7.6367A7.2413,7.2413,0,0,1,57.0749,252.4424Zm11.1416,0c0-2.9365-1.4287-4.8711-3.8115-4.8711s-3.8106,1.9346-3.8106,4.8711c0,2.918,1.4287,4.833,3.8106,4.833S68.2165,255.36,68.2165,252.4424Z"/><path class="cls-4" d="M87.6794,240.2891H100.14v2.9067H91.1364v4.97h7.626v2.9068h-7.626v5.7441h9.3008v2.9063H87.6794Z"/><path class="cls-4" d="M105.9655,252.1455l-4.9111-7.0215h3.72l1.8955,2.7578c.4727.8135,1.0674,1.6866,1.6074,2.481h.1192c.458-.7944.9873-1.686,1.4267-2.4995l1.7149-2.7393h3.6084l-4.959,7.3711,5.3213,7.2276H111.77l-2.083-2.8711c-.58-.8135-1.2119-1.7608-1.793-2.5938h-.1191c-.5176.8516-1.0576,1.7129-1.5762,2.6133l-1.9082,2.8516h-3.6084Z"/><path class="cls-4" d="M116.196,245.124h2.8066l.2627,1.6685h.1a7.22,7.22,0,0,1,4.6885-2.0254c3.7852,0,5.9414,2.916,5.9414,7.437,0,4.9814-3.0908,7.875-6.4814,7.875a6.0314,6.0314,0,0,1-3.961-1.7305h-.081l.1621,2.5606V265.5H116.196Zm10.28,7.1026c0-2.9082-1.0254-4.6148-3.3858-4.6148a4.8688,4.8688,0,0,0-3.457,1.7471v6.561a4.8988,4.8988,0,0,0,3.1689,1.3155C124.8786,257.2354,126.4763,255.5313,126.4763,252.2266Z"/><path class="cls-4" d="M135.0143,254.4092V241.4561h-4.872v-2.7227h8.31v15.8535a2.3937,2.3937,0,0,0,2.624,2.6885,6.4264,6.4264,0,0,0,2.4981-.5664l.7978,2.541a10.4146,10.4146,0,0,1-4.1367.8291C136.8288,260.0791,135.0143,257.99,135.0143,254.4092Z"/><path class="cls-4" d="M144.4645,252.4424a7.3363,7.3363,0,1,1,7.33,7.6367A7.2414,7.2414,0,0,1,144.4645,252.4424Zm11.1416,0c0-2.9365-1.4287-4.8711-3.8115-4.8711s-3.81,1.9346-3.81,4.8711c0,2.918,1.4287,4.833,3.81,4.833S155.6061,255.36,155.6061,252.4424Z"/><path class="cls-4" d="M161.3054,245.124h2.8369l.292,3.32h.082a7.2227,7.2227,0,0,1,6.21-3.6767,6.0827,6.0827,0,0,1,2.8427.5947l-.7285,2.9068a7.4429,7.4429,0,0,0-2.6426-.4537c-1.9951,0-3.959,1.0235-5.4541,3.8589v8.0489h-3.4384Z"/><path class="cls-4" d="M173.8327,252.4043a7.3942,7.3942,0,0,1,7.5244-7.6372c4.3574,0,6.7725,2.8906,6.7725,6.93a11.4162,11.4162,0,0,1-.1514,1.7265H176.2858v-2.4262h9.4727l-.6572.76c0-2.8843-1.3565-4.3491-3.6416-4.3491-2.4131,0-4.2735,1.7373-4.2735,4.9956,0,3.3965,2.0449,5.0156,5.08,5.0156a7.9478,7.9478,0,0,0,4.0937-1.1933l1.1758,2.1289a10.6126,10.6126,0,0,1-5.72,1.7236C177.3454,260.0791,173.8327,257.2637,173.8327,252.4043Z"/><path class="cls-8" d="M334.0521,366.3623l-168.19-.7653c0-46.4444,34.9641-76.1644,84.0949-84.0949,55.7907-9.0056,84.0949-40.1459,84.0949-84.0949a84.0949,84.0949,0,1,0-168.19,0"/></g></g></svg>